<svg width="31" height="31" viewBox="0 0 31 31" fill="none" xmlns="http://www.w3.org/2000/svg">
<path d="M6.36997 9.39767C7.64633 9.81615 12.3437 11.1344 16.0996 9.15705C19.8554 7.1902 21.4352 2.56601 21.8118 1.27919C21.8641 1.09087 21.7595 0.881635 21.5712 0.818864C20.2948 0.400385 15.5974 -0.917822 11.8416 1.05949C8.08573 3.02634 6.50597 7.65052 6.12934 8.93734C6.07703 9.12566 6.18165 9.3349 6.36997 9.39767Z" fill="#382C44"/>
<path d="M25.1073 11.6784H1.2436C0.751889 11.6784 0.343872 12.076 0.343872 12.5781V18.5938C0.343872 25.258 5.76317 30.6773 12.4274 30.6773H13.0238C17.9409 30.6773 22.314 27.748 24.1867 23.2179H25.1073C28.2878 23.2179 30.8719 20.6338 30.8719 17.4534C30.8719 14.273 28.2878 11.6889 25.1073 11.6889V11.6784ZM25.1492 19.7969C24.9504 19.8283 24.7725 19.6609 24.7725 19.4621V15.089C24.7725 14.8902 24.9504 14.7228 25.1492 14.7542C26.4674 14.9321 27.4822 15.9887 27.4822 17.2756C27.4822 18.5624 26.4674 19.619 25.1492 19.7969Z" fill="#382C44"/>
</svg>
