<svg width="204" height="39" viewBox="0 0 204 39" fill="none" xmlns="http://www.w3.org/2000/svg">
<g clip-path="url(#clip0_2_80)">
<g clip-path="url(#clip1_2_80)">
<path d="M32.58 1.24001C30.92 -0.469987 28.02 0.700013 28.02 3.09001V17.17C28.02 17.61 27.94 18.05 27.76 18.46C27.67 18.66 27.57 18.84 27.46 19C26.36 20.63 23.99 20.75 22.62 19.35L15.81 12.43L4.56 0.810013C2.9 -0.899987 0 0.270013 0 2.66001V22.69C0 24.57 0.73 26.38 2.04 27.74L11.31 37.31C12.97 39.02 15.87 37.85 15.87 35.46V20.74C15.87 20.18 16 19.62 16.28 19.14C16.43 18.89 16.59 18.68 16.77 18.5C17.99 17.28 20.01 17.38 21.22 18.61L28 25.5L39.29 37.46C40.94 39.21 43.88 38.04 43.88 35.64V15.87C43.88 13.99 43.15 12.18 41.84 10.82L32.58 1.24001Z" fill="#382C44"/>
<path d="M62.44 8.62H67.9C68.37 8.62 68.81 8.86 69.06 9.26L78.23 23.69H78.33V8.63H83.86V32.44H78.44C77.97 32.44 77.53 32.2 77.28 31.8L68.21 17.35H67.98V32.45H62.45V8.62H62.44Z" fill="#382C44"/>
<path d="M100.61 8.62H106.14V27.23H115.84V32.43H103.85C102.06 32.43 100.61 30.98 100.61 29.19V8.62Z" fill="#382C44"/>
<path d="M117.76 20.53C117.74 13.48 123.12 8.16 130.26 8.16C137.4 8.16 142.74 13.47 142.76 20.53C142.74 27.58 137.38 32.9 130.26 32.9C123.14 32.9 117.75 27.59 117.76 20.53ZM137.2 20.53C137.2 16.35 134.31 13.38 130.26 13.39C126.2 13.37 123.3 16.35 123.29 20.53C123.31 24.71 126.2 27.68 130.26 27.67C134.31 27.69 137.2 24.71 137.2 20.53Z" fill="#382C44"/>
<path d="M145.1 20.53C145.08 13.49 150.46 8.16 157.6 8.16C161.81 8.16 165.15 10.03 167.17 12.67L162.83 15.93C161.47 14.14 159.79 13.38 157.6 13.4C153.51 13.38 150.64 16.34 150.63 20.54C150.65 24.73 153.52 27.69 157.64 27.68C160.62 27.7 162.72 26.12 163.4 23.6H157.94V19.09H166.27C167.78 19.09 169.05 20.31 169.02 21.83C169.02 21.83 169.02 21.85 169.02 21.86C169.04 28.45 164.2 32.91 157.64 32.91C150.49 32.91 145.09 27.58 145.11 20.54L145.1 20.53Z" fill="#382C44"/>
<path d="M172.24 8.62H177.77V32.43H172.24V8.62Z" fill="#382C44"/>
<path d="M181.02 20.53C181 13.52 186.33 8.16 193.29 8.16C197.88 8.16 201.73 10.48 203.78 14.05L198.88 16.52C197.75 14.6 195.72 13.38 193.29 13.4C189.46 13.38 186.56 16.47 186.55 20.54C186.57 24.6 189.46 27.69 193.29 27.68C195.72 27.7 197.75 26.48 198.88 24.56L203.78 27.03C201.72 30.6 197.88 32.92 193.29 32.92C186.33 32.92 181.01 27.56 181.02 20.55V20.53Z" fill="#382C44"/>
<path d="M91.0135 19.0895L91.0064 19.0965C90.2137 19.8893 90.2137 21.1746 91.0064 21.9674L91.0135 21.9745C91.8063 22.7672 93.0916 22.7672 93.8843 21.9745L93.8914 21.9674C94.6842 21.1746 94.6842 19.8893 93.8914 19.0965L93.8844 19.0895C93.0916 18.2967 91.8063 18.2967 91.0135 19.0895Z" fill="#382C44"/>
</g>
</g>
<defs>
<clipPath id="clip0_2_80">
<rect width="203.78" height="38.29" fill="white"/>
</clipPath>
<clipPath id="clip1_2_80">
<rect width="203.78" height="38.29" fill="white"/>
</clipPath>
</defs>
</svg>
