<svg width="37" height="31" viewBox="0 0 37 31" fill="none" xmlns="http://www.w3.org/2000/svg">
<path d="M29.072 10.8909C28.3501 10.8909 27.7747 11.4768 27.7747 12.1882C27.7747 12.8996 28.3606 13.4855 29.072 13.4855C29.7834 13.4855 30.3693 12.8996 30.3693 12.1882C30.3693 11.4768 29.7834 10.8909 29.072 10.8909Z" fill="#382C44"/>
<path d="M20.2003 11.0479C19.4784 11.0479 18.903 11.6337 18.903 12.3451C18.903 13.0565 19.4889 13.6424 20.2003 13.6424C20.9117 13.6424 21.4976 13.0565 21.4976 12.3451C21.4976 11.6337 20.9117 11.0479 20.2003 11.0479Z" fill="#382C44"/>
<path d="M7.58317 11.0479C6.86129 11.0479 6.28589 11.6337 6.28589 12.3451C6.28589 13.0565 6.87176 13.6424 7.58317 13.6424C8.29458 13.6424 8.88046 13.0565 8.88046 12.3451C8.88046 11.6337 8.29458 11.0479 7.58317 11.0479Z" fill="#382C44"/>
<path d="M31.1539 0H5.33382C2.57187 0 0.333008 2.23886 0.333008 5.00082V18.026C0.333008 20.7879 2.57187 23.0268 5.33382 23.0268H15.189L17.9614 30.0467C18.0556 30.3292 18.4531 30.3292 18.5577 30.0467L21.508 23.0268H31.1644C33.9264 23.0268 36.1652 20.7879 36.1652 18.026V5.00082C36.1652 2.23886 33.9264 0 31.1644 0H31.1539ZM7.90746 15.4419C7.03912 15.4419 6.51603 14.9606 6.23355 14.563V15.2117H4.16208V6.66427H6.23355V9.9284C6.5788 9.59362 7.21698 9.1019 8.0644 9.1019C9.36168 9.1019 10.8264 10.0749 10.8264 12.1882C10.8264 14.7932 9.03735 15.4419 7.897 15.4419H7.90746ZM15.3668 15.2117H13.3895L13.4209 9.75055C13.4209 9.75055 13.4209 8.45326 12.448 8.45326V6.48641C12.448 6.48641 15.2099 6.33995 15.3668 9.1019V15.2117ZM23.3807 13.8098C22.3031 15.9859 19.0181 15.3686 19.0181 15.3686C19.0181 15.3686 16.9466 14.7827 16.9466 12.1777C16.9466 9.57269 20.2003 9.24837 20.2003 9.24837C22.4705 8.92405 24.5838 11.3617 23.3807 13.7993V13.8098ZM32.3152 15.5151C32.3152 18.5281 28.5803 18.2038 28.5803 18.2038V16.4985C29.1348 16.4985 29.5742 16.4567 29.8776 16.2579C30.3693 15.9336 30.3693 15.4732 30.3588 15.1594V14.6781C30.0031 15.0129 29.3859 15.4523 28.5698 15.4523C27.2725 15.4523 25.8079 14.4794 25.8079 12.366C25.8079 9.76101 27.1889 8.97636 28.7372 9.11237C29.5323 9.1856 30.0345 9.52038 30.3379 9.88655V9.41576H32.3152V15.5255V15.5151Z" fill="#382C44"/>
<path d="M7.58317 13.6529C6.86129 13.6529 6.28589 13.067 6.28589 12.3556C6.28589 11.6442 6.87176 11.0583 7.58317 11.0583C8.29458 11.0583 8.88046 11.6442 8.88046 12.3556C8.88046 13.067 8.29458 13.6529 7.58317 13.6529Z" fill="#382C44"/>
<path d="M29.072 13.4855C28.3501 13.4855 27.7747 12.8996 27.7747 12.1882C27.7747 11.4768 28.3606 10.8909 29.072 10.8909C29.7834 10.8909 30.3693 11.4768 30.3693 12.1882C30.3693 12.8996 29.7834 13.4855 29.072 13.4855Z" fill="#382C44"/>
</svg>
