<svg width="32" height="31" viewBox="0 0 32 31" fill="none" xmlns="http://www.w3.org/2000/svg">
<path d="M16.0083 23.0477C11.6665 23.0477 8.1304 19.5116 8.1304 15.1698C8.1304 10.8281 11.6665 7.29199 16.0083 7.29199C20.35 7.29199 23.8861 10.8281 23.8861 15.1698C23.8861 19.5116 20.35 23.0477 16.0083 23.0477ZM16.0083 9.37392C12.8174 9.37392 10.2228 11.9685 10.2228 15.1594C10.2228 18.3503 12.8174 20.9449 16.0083 20.9449C19.1992 20.9449 21.7937 18.3503 21.7937 15.1594C21.7937 11.9685 19.1992 9.37392 16.0083 9.37392Z" fill="#382C44"/>
<path d="M23.6246 8.46374C24.5317 8.46374 25.2671 7.72835 25.2671 6.82121C25.2671 5.91407 24.5317 5.17868 23.6246 5.17868C22.7174 5.17868 21.9821 5.91407 21.9821 6.82121C21.9821 7.72835 22.7174 8.46374 23.6246 8.46374Z" fill="#382C44"/>
<path d="M21.6577 30.3397H10.3588C5.10692 30.3397 0.83844 26.0712 0.83844 20.8193V9.52038C0.83844 4.26848 5.10692 0 10.3588 0H21.6577C26.9096 0 31.1781 4.26848 31.1781 9.52038V20.8193C31.1781 26.0712 26.9096 30.3397 21.6577 30.3397ZM10.3588 2.09239C6.2682 2.09239 2.93083 5.4193 2.93083 9.52038V20.8193C2.93083 24.9099 6.25773 28.2473 10.3588 28.2473H21.6577C25.7484 28.2473 29.0857 24.9204 29.0857 20.8193V9.52038C29.0857 5.42976 25.7588 2.09239 21.6577 2.09239H10.3588Z" fill="#382C44"/>
</svg>
