<svg width="544" height="574" viewBox="0 0 544 574" fill="none" xmlns="http://www.w3.org/2000/svg">
<path opacity="0.29" d="M-242.547 -1.35962L-243.667 265.71C-246.017 381.02 -106.667 440.42 -25.1069 358.86L335.113 -1.35962H-242.547Z" fill="#7D70EF"/>
<path opacity="0.29" d="M-1.18692 98.2504C-4.09692 240.99 168.393 314.51 269.343 213.56L508.223 -25.3196H-0.676906L-1.19689 98.2604L-1.18692 98.2504Z" fill="#7D70EF"/>
<path d="M361.178 -258.469L-282.738 393.589C-294.481 405.481 -294.36 424.64 -282.469 436.383L-164.724 552.657C-152.833 564.4 -133.674 564.28 -121.931 552.388L521.985 -99.6701C533.727 -111.561 533.607 -130.721 521.716 -142.463L403.971 -258.738C392.08 -270.481 372.92 -270.36 361.178 -258.469Z" fill="url(#paint0_radial_1_50)"/>
<defs>
<radialGradient id="paint0_radial_1_50" cx="0" cy="0" r="1" gradientUnits="userSpaceOnUse" gradientTransform="translate(178.05 -61.5972) rotate(-45.36) scale(481.459 418.66)">
<stop offset="0.04" stop-color="#FEFEFF" stop-opacity="0.3"/>
<stop offset="0.15" stop-color="#F4F3FD" stop-opacity="0.28"/>
<stop offset="0.3" stop-color="#DAD6FA" stop-opacity="0.22"/>
<stop offset="0.46" stop-color="#AFA7F5" stop-opacity="0.12"/>
<stop offset="0.6" stop-color="#7D70EF" stop-opacity="0"/>
</radialGradient>
</defs>
</svg>
